# xmcd
#
# Track frame offsets: 
#        150
#        11767
#        25668
#        37876
#        51910
#        66281
#        79020
#        93568
#        106979
#        121060
#        142138
#        171519
#        186270
#        224949
#        252980
#
# Disc length: 3663 seconds
#
# Revision: 0
# Processed by: cddbd v1.5.1PL2 Copyright (c) Steve Scherf et al.
# Submitted via: ExactAudioCopy v0.95b4
#
DISCID=dc0e4d0f
DTITLE=Various Artist - Gold Blues - The Essential Collection
DYEAR=2006
DGENRE=Blues
TTITLE0=Leadbelly - Mother's Blues
TTITLE1=Leadbelly - The Boll Weevil
TTITLE2=Duke Ellington - C-jam Blues
TTITLE3=Cout Basie - Swingin' The Blues
TTITLE4=Louis Armstrong - (What Did I Do To Be So) Black And Blue
TTITLE5=Miff Mole's Molers - Honolulu Blues
TTITLE6=Glenn Miller - Farewell Blues
TTITLE7=Memphis Slim - Lonely Nights
TTITLE8=Nina Simone - Gin House Blues
TTITLE9=John Lee Hooker - Looking Back Over My Day
TTITLE10=Lionel Hampton - Blues For Hamp
TTITLE11=Carmen Mc Rae - Don't Misunderstand
TTITLE12=Carmen Mc Rae - Blues For Gerry
TTITLE13=B.B. King - Payin' The Cost To Be The Boss
TTITLE14=B.B. King - Every Day I Have The Blues
EXTD=
EXTT0=
EXTT1=
EXTT2=
EXTT3=
EXTT4=
EXTT5=
EXTT6=
EXTT7=
EXTT8=
EXTT9=
EXTT10=
EXTT11=
EXTT12=
EXTT13=
EXTT14=
PLAYORDER=
